<svg width="1000" height="1000" viewBox="0 0 1000 1000" fill="none" xmlns="http://www.w3.org/2000/svg">
	<g clip-path="url(#clip0_1_2)">
		<path d="M735 490C735 522.83 728.534 555.339 715.97 585.671C703.406 616.002 684.991 643.562 661.777 666.777C638.562 689.991 611.002 708.406 580.671 720.97C550.339 733.534 517.83 740 485 740V686.105C510.753 686.105 536.254 681.033 560.046 671.177C583.839 661.322 605.457 646.877 623.667 628.667C641.877 610.457 656.322 588.839 666.177 565.046C676.033 541.254 681.105 515.753 681.105 490H735Z" fill="#E4F1FF" />
		<ellipse cx="488" cy="713" rx="32" ry="27" fill="#E4F1FF" />
		<ellipse cx="708" cy="493" rx="27" ry="32" fill="#E4F1FF" />
		<path d="M360 273.494C388.432 257.078 419.819 246.424 452.368 242.139C484.918 237.854 517.993 240.021 549.705 248.519C581.417 257.016 611.144 271.676 637.19 291.662C663.237 311.648 685.091 336.568 701.506 365L654.832 391.947C641.956 369.645 624.812 350.097 604.381 334.419C583.95 318.742 560.631 307.242 535.756 300.577C510.88 293.912 484.936 292.211 459.403 295.573C433.871 298.934 409.25 307.292 386.947 320.168L360 273.494Z" fill="#E4F1FF" />
		<ellipse cx="676.624" cy="375.902" rx="32" ry="27" transform="rotate(-120 676.624 375.902)" fill="#E4F1FF" />
		<ellipse cx="376.098" cy="295.376" rx="27" ry="32" transform="rotate(-120 376.098 295.376)" fill="#E4F1FF" />
		<path d="M360 706.506C331.568 690.091 306.648 668.237 286.662 642.19C266.676 616.144 252.016 586.417 243.519 554.705C235.021 522.993 232.854 489.918 237.139 457.368C241.424 424.819 252.078 393.432 268.494 365L315.168 391.947C302.292 414.25 293.934 438.871 290.573 464.403C287.211 489.936 288.912 515.88 295.577 540.756C302.242 565.631 313.742 588.95 329.419 609.381C345.097 629.812 364.645 646.956 386.947 659.832L360 706.506Z" fill="#AED2FF" />
		<ellipse cx="290.376" cy="381.098" rx="32" ry="27" transform="rotate(120 290.376 381.098)" fill="#AED2FF" />
		<ellipse cx="370.902" cy="681.624" rx="27" ry="32" transform="rotate(120 370.902 681.624)" fill="#AED2FF" />
		<path d="M103.11 558.778C94.3053 508.845 95.5295 457.647 106.713 408.109C117.896 358.57 138.818 311.661 168.286 270.059C197.755 228.456 235.191 192.977 278.458 165.645C321.725 138.313 369.975 119.664 420.454 110.763L434.908 192.735C395.311 199.717 357.463 214.345 323.523 235.785C289.584 257.224 260.218 285.056 237.102 317.689C213.987 350.323 197.575 387.119 188.803 425.978C180.03 464.837 179.07 504.998 185.977 544.167L103.11 558.778Z" fill="#E4F1FF" />
		<ellipse cx="423.082" cy="152.642" rx="49.9609" ry="41.6991" transform="rotate(170 423.082 152.642)" fill="#E4F1FF" />
		<ellipse cx="143.82" cy="546.895" rx="42.1545" ry="49.4211" transform="rotate(170 143.82 546.895)" fill="#E4F1FF" />
		<path d="M737.758 786.406C698.445 819.081 653.043 843.795 604.145 859.137C555.248 874.479 503.812 880.149 452.774 875.823C401.736 871.497 352.097 857.259 306.689 833.923C261.282 810.587 220.996 778.609 188.131 739.816L252.669 686.176C278.449 716.607 310.05 741.69 345.668 759.996C381.287 778.301 420.225 789.469 460.26 792.863C500.295 796.256 540.643 791.809 578.999 779.774C617.355 767.739 652.969 748.353 683.808 722.722L737.758 786.406Z" fill="#E4F1FF" />
		<ellipse cx="49.5566" cy="42.0411" rx="49.5566" ry="42.0411" transform="matrix(0.646394 0.763004 -0.769051 0.639187 223.765 651.805)" fill="#E4F1FF" />
		<ellipse cx="41.8134" cy="49.8265" rx="41.8134" ry="49.8265" transform="matrix(0.646394 0.763004 -0.769051 0.639187 718.429 693.735)" fill="#E4F1FF" />
		<path d="M621.631 127.816C669.75 145.074 713.927 171.558 751.642 205.754C789.357 239.951 819.87 281.19 841.439 327.119C863.009 373.047 875.212 422.764 877.353 473.432C879.493 524.1 871.529 574.727 853.914 622.421L774.923 594.089C788.74 556.677 794.987 516.965 793.308 477.22C791.629 437.475 782.057 398.475 765.137 362.448C748.218 326.421 724.283 294.072 694.698 267.247C665.114 240.423 630.46 219.649 592.715 206.111L621.631 127.816Z" fill="#AED2FF" />
		<ellipse cx="49.5566" cy="42.0411" rx="49.5566" ry="42.0411" transform="matrix(0.346449 -0.938069 0.941287 0.337608 759.21 636.163)" fill="#AED2FF" />
		<ellipse cx="41.8134" cy="49.8265" rx="41.8134" ry="49.8265" transform="matrix(0.346449 -0.938069 0.941287 0.337608 550.155 191.019)" fill="#AED2FF" />
		<path d="M564 490C564 533.078 528.407 568 484.5 568C440.593 568 405 533.078 405 490C405 446.922 440.593 412 484.5 412C528.407 412 564 446.922 564 490ZM444.298 490C444.298 511.784 462.297 529.444 484.5 529.444C506.703 529.444 524.702 511.784 524.702 490C524.702 468.216 506.703 450.556 484.5 450.556C462.297 450.556 444.298 468.216 444.298 490Z" fill="#AED2FF" />
	</g>
	<defs>
		<clipPath id="clip0_1_2">
			<rect width="1000" height="1000" fill="white" />
		</clipPath>
	</defs>
</svg>
