<svg id="visual" viewBox="0 0 900 600" width="900" height="600" xmlns="http://www.w3.org/2000/svg" xmlns:xlink="http://www.w3.org/1999/xlink" version="1.1">
	<path d="M0 31L15 36C30 41 60 51 90 60C120 69 150 77 180 68C210 59 240 33 270 22C300 11 330 15 360 15C390 15 420 11 450 9C480 7 510 7 540 19C570 31 600 55 630 59C660 63 690 47 720 33.8C750 20.7 780 10.3 810 6.3C840 2.3 870 4.7 885 5.8L900 7L900 0L885 0C870 0 840 0 810 0C780 0 750 0 720 0C690 0 660 0 630 0C600 0 570 0 540 0C510 0 480 0 450 0C420 0 390 0 360 0C330 0 300 0 270 0C240 0 210 0 180 0C150 0 120 0 90 0C60 0 30 0 15 0L0 0Z" fill="#bb6cff">
	</path>
	<path d="M0 109L15 115C30 121 60 133 90 131C120 129 150 113 180 119C210 125 240 153 270 141C300 129 330 77 360 60C390 43 420 61 450 101C480 141 510 203 540 224C570 245 600 225 630 200C660 175 690 145 720 141C750 137 780 159 810 144C840 129 870 77 885 51L900 25L900 5L885 4.2C870 3.3 840 1.7 810 5.7C780 9.7 750 19.3 720 32.2C690 45 660 61 630 57C600 53 570 29 540 17C510 5 480 5 450 7C420 9 390 13 360 13C330 13 300 9 270 20C240 31 210 57 180 66C150 75 120 67 90 58C60 49 30 39 15 34L0 29Z" fill="#b35cff">
	</path>
	<path d="M0 199L15 199C30 199 60 199 90 199C120 199 150 199 180 196C210 193 240 187 270 184C300 181 330 181 360 182C390 183 420 185 450 208C480 231 510 275 540 283C570 291 600 263 630 254C660 245 690 255 720 267C750 279 780 293 810 265C840 237 870 167 885 132L900 97L900 23L885 49C870 75 840 127 810 142C780 157 750 135 720 139C690 143 660 173 630 198C600 223 570 243 540 222C510 201 480 139 450 99C420 59 390 41 360 58C330 75 300 127 270 139C240 151 210 123 180 117C150 111 120 127 90 129C60 131 30 119 15 113L0 107Z" fill="#ab4bff">
	</path>
	<path d="M0 235L15 239C30 243 60 251 90 246C120 241 150 223 180 217C210 211 240 217 270 226C300 235 330 247 360 244C390 241 420 223 450 242C480 261 510 317 540 332C570 347 600 321 630 317C660 313 690 331 720 335C750 339 780 329 810 290C840 251 870 183 885 149L900 115L900 95L885 130C870 165 840 235 810 263C780 291 750 277 720 265C690 253 660 243 630 252C600 261 570 289 540 281C510 273 480 229 450 206C420 183 390 181 360 180C330 179 300 179 270 182C240 185 210 191 180 194C150 197 120 197 90 197C60 197 30 197 15 197L0 197Z" fill="#a237ff">
	</path>
	<path d="M0 247L15 253C30 259 60 271 90 273C120 275 150 267 180 257C210 247 240 235 270 237C300 239 330 255 360 258C390 261 420 251 450 273C480 295 510 349 540 358C570 367 600 331 630 325C660 319 690 343 720 356C750 369 780 371 810 337C840 303 870 233 885 198L900 163L900 113L885 147C870 181 840 249 810 288C780 327 750 337 720 333C690 329 660 311 630 315C600 319 570 345 540 330C510 315 480 259 450 240C420 221 390 239 360 242C330 245 300 233 270 224C240 215 210 209 180 215C150 221 120 239 90 244C60 249 30 241 15 237L0 233Z" fill="#991cff">
	</path>
	<path d="M0 295L15 304C30 313 60 331 90 342C120 353 150 357 180 349C210 341 240 321 270 316C300 311 330 321 360 327C390 333 420 335 450 363C480 391 510 445 540 444C570 443 600 387 630 381C660 375 690 419 720 444C750 469 780 475 810 432C840 389 870 297 885 251L900 205L900 161L885 196C870 231 840 301 810 335C780 369 750 367 720 354C690 341 660 317 630 323C600 329 570 365 540 356C510 347 480 293 450 271C420 249 390 259 360 256C330 253 300 237 270 235C240 233 210 245 180 255C150 265 120 273 90 271C60 269 30 257 15 251L0 245Z" fill="#9000f7">
	</path>
	<path d="M0 445L15 454C30 463 60 481 90 486C120 491 150 483 180 479C210 475 240 475 270 481C300 487 330 499 360 494C390 489 420 467 450 466C480 465 510 485 540 507C570 529 600 553 630 563C660 573 690 569 720 554C750 539 780 513 810 502C840 491 870 495 885 497L900 499L900 203L885 249C870 295 840 387 810 430C780 473 750 467 720 442C690 417 660 373 630 379C600 385 570 441 540 442C510 443 480 389 450 361C420 333 390 331 360 325C330 319 300 309 270 314C240 319 210 339 180 347C150 355 120 351 90 340C60 329 30 311 15 302L0 293Z" fill="#8700e8">
	</path>
	<path d="M0 505L15 508C30 511 60 517 90 517C120 517 150 511 180 505C210 499 240 493 270 497C300 501 330 515 360 515C390 515 420 501 450 501C480 501 510 515 540 531C570 547 600 565 630 572C660 579 690 575 720 560C750 545 780 519 810 512C840 505 870 517 885 523L900 529L900 497L885 495C870 493 840 489 810 500C780 511 750 537 720 552C690 567 660 571 630 561C600 551 570 527 540 505C510 483 480 463 450 464C420 465 390 487 360 492C330 497 300 485 270 479C240 473 210 473 180 477C150 481 120 489 90 484C60 479 30 461 15 452L0 443Z" fill="#7e00d8">
	</path>
	<path d="M0 541L15 541C30 541 60 541 90 550C120 559 150 577 180 579C210 581 240 567 270 558C300 549 330 545 360 548C390 551 420 561 450 562C480 563 510 555 540 558C570 561 600 575 630 582C660 589 690 589 720 589C750 589 780 589 810 588C840 587 870 585 885 584L900 583L900 527L885 521C870 515 840 503 810 510C780 517 750 543 720 558C690 573 660 577 630 570C600 563 570 545 540 529C510 513 480 499 450 499C420 499 390 513 360 513C330 513 300 499 270 495C240 491 210 497 180 503C150 509 120 515 90 515C60 515 30 509 15 506L0 503Z" fill="#7600c9">
	</path>
	<path d="M0 601L15 601C30 601 60 601 90 601C120 601 150 601 180 601C210 601 240 601 270 601C300 601 330 601 360 601C390 601 420 601 450 601C480 601 510 601 540 601C570 601 600 601 630 601C660 601 690 601 720 601C750 601 780 601 810 601C840 601 870 601 885 601L900 601L900 581L885 582C870 583 840 585 810 586C780 587 750 587 720 587C690 587 660 587 630 580C600 573 570 559 540 556C510 553 480 561 450 560C420 559 390 549 360 546C330 543 300 547 270 556C240 565 210 579 180 577C150 575 120 557 90 548C60 539 30 539 15 539L0 539Z" fill="#6d00ba">
	</path>
</svg>
